# xmcd
#
# Track frame offsets: 
#        150
#        11190
#        20415
#        29311
#        40320
#        51404
#        62792
#        72844
#        83943
#        96811
#        109729
#        119612
#        129918
#        139820
#
# Disc length: 1985 seconds
#
# Revision: 0
# Processed by: cddbd v1.5.2PL0 Copyright (c) Steve Scherf et al.
# Submitted via: ExactAudioCopy v1.3
#
DISCID=c507bf0e
DTITLE=Paul Lenart - Blues on the Loose
DYEAR=2020
DGENRE=Blues
TTITLE0=Hammerhead
TTITLE1=Blues on the Loose
TTITLE2=Blues on the Rocks
TTITLE3=Slidin' the Blues
TTITLE4=Crocodile Crawl
TTITLE5=Midnight Mojo
TTITLE6=Mezcal Moan
TTITLE7=Shake It but Don't Break It
TTITLE8=The Hellhound Howls
TTITLE9=The Still on the Hill
TTITLE10=Rattler
TTITLE11=Ridin' the Blinds
TTITLE12=Gypsy Blues
TTITLE13=Scufflin'
EXTD=
EXTT0=
EXTT1=
EXTT2=
EXTT3=
EXTT4=
EXTT5=
EXTT6=
EXTT7=
EXTT8=
EXTT9=
EXTT10=
EXTT11=
EXTT12=
EXTT13=
PLAYORDER=
